<?xml version="1.0" encoding="UTF-8"?>
<svg width="64px" height="64px" viewBox="0 0 64 64" version="1.1" xmlns="http://www.w3.org/2000/svg" xmlns:xlink="http://www.w3.org/1999/xlink">
    <title>icon / category</title>
    <defs>
        <linearGradient x1="50%" y1="0%" x2="50%" y2="100%" id="linearGradient-1">
            <stop stop-color="#EDF8EA" offset="0%"></stop>
            <stop stop-color="#D2EDCA" offset="100%"></stop>
        </linearGradient>
        <circle id="path-2" cx="24" cy="24" r="24"></circle>
        <linearGradient x1="-1.77635684e-13%" y1="45.7307303%" x2="100%" y2="54.2692697%" id="linearGradient-4">
            <stop stop-color="#98D78B" offset="0%"></stop>
            <stop stop-color="#5AC34E" offset="100%"></stop>
        </linearGradient>
        <linearGradient x1="36.9382716%" y1="1.04083409e-14%" x2="63.0617284%" y2="100%" id="linearGradient-5">
            <stop stop-color="#C7C1E0" offset="0%"></stop>
            <stop stop-color="#333098" offset="100%"></stop>
        </linearGradient>
        <linearGradient x1="29.7520661%" y1="1.04083409e-14%" x2="70.2479339%" y2="100%" id="linearGradient-6">
            <stop stop-color="#7F78BB" offset="0%"></stop>
            <stop stop-color="#333098" offset="100%"></stop>
        </linearGradient>
    </defs>
    <g id="icon-/-category" stroke="none" stroke-width="1" fill="none" fill-rule="evenodd">
        <g id="Group-4" transform="translate(8.000000, 10.000000)">
            <mask id="mask-3" fill="white">
                <use xlink:href="#path-2"></use>
            </mask>
            <use id="Oval" fill="url(#linearGradient-1)" xlink:href="#path-2"></use>
        </g>
        <ellipse id="Oval" fill="#3E923A" cx="32" cy="51.9090909" rx="14" ry="4.09090909"></ellipse>
        <ellipse id="Oval-Copy" fill="url(#linearGradient-4)" cx="32" cy="50.0909091" rx="14" ry="4.09090909"></ellipse>
        <path d="M34,6 C41.7319865,6 48,12.2680135 48,20 C48,25.1546577 43.3333333,35.1546577 34,50 L32,51 L32.3708444,50.4087705 C41.4569481,35.8888524 46,26.0859289 46,21 C46,13.2680135 39.7319865,7 32,7 C30.1492626,7 28.3824017,7.35911815 26.7652996,8.01147229 C28.8762995,6.73498708 31.3523171,6 34,6 Z M27,20 C27,23.8659932 30.1340068,27 34,27 C34.7259821,27 35.4261516,26.8894829 36.084602,26.684355 C34.9353579,27.5125964 33.5245986,28 32,28 C28.1340068,28 25,24.8659932 25,21 C25,17.8599889 27.0674743,15.2028622 29.915398,14.315645 C28.1495477,15.5857019 27,17.6586053 27,20 Z" id="Combined-Shape" fill="url(#linearGradient-5)"></path>
        <path d="M32,7 C39.7319865,7 46,13.2680135 46,21 C46,26.1546577 41.3333333,36.1546577 32,51 C22.6666667,36.1546577 18,26.1546577 18,21 C18,13.2680135 24.2680135,7 32,7 Z M32,14 C28.1340068,14 25,17.1340068 25,21 C25,24.8659932 28.1340068,28 32,28 C35.8659932,28 39,24.8659932 39,21 C39,17.1340068 35.8659932,14 32,14 Z" id="Combined-Shape" fill="url(#linearGradient-6)"></path>
    </g>
</svg>