<?xml version="1.0" encoding="UTF-8"?>
<svg width="64px" height="64px" viewBox="0 0 64 64" version="1.1" xmlns="http://www.w3.org/2000/svg" xmlns:xlink="http://www.w3.org/1999/xlink">
    <title>icon / contact</title>
    <defs>
        <linearGradient x1="50%" y1="0%" x2="50%" y2="100%" id="linearGradient-1">
            <stop stop-color="#EDF8EA" offset="0%"></stop>
            <stop stop-color="#D2EDCA" offset="100%"></stop>
        </linearGradient>
        <circle id="path-2" cx="24" cy="24" r="24"></circle>
        <linearGradient x1="27.7777778%" y1="1.04083409e-14%" x2="72.2222222%" y2="100%" id="linearGradient-4">
            <stop stop-color="#E9E6F3" offset="0%"></stop>
            <stop stop-color="#333098" offset="100%"></stop>
        </linearGradient>
        <linearGradient x1="49.3079585%" y1="1.04083409e-14%" x2="50.6920415%" y2="100%" id="linearGradient-5">
            <stop stop-color="#C7C1E0" offset="0%"></stop>
            <stop stop-color="#333098" offset="100%"></stop>
        </linearGradient>
        <linearGradient x1="100%" y1="55.5555556%" x2="4.96824804e-13%" y2="44.4444444%" id="linearGradient-6">
            <stop stop-color="#5AC34E" offset="0%"></stop>
            <stop stop-color="#D2EDCA" offset="100%"></stop>
        </linearGradient>
        <path d="M24,48 C37.254834,48 48,37.8869026 48,25.4117647 C48,12.9366268 45.1614091,0 38.8308361,0 C29.1519717,0 11.6897871,0 8.52415154,0 C4.28665912,0 0,22.0461463 0,25.4117647 C0,37.8869026 10.745166,48 24,48 Z" id="path-7"></path>
        <linearGradient x1="27.7777778%" y1="1.04083409e-14%" x2="72.2222222%" y2="100%" id="linearGradient-9">
            <stop stop-color="#C7C1E0" offset="0%"></stop>
            <stop stop-color="#333098" offset="100%"></stop>
        </linearGradient>
        <linearGradient x1="49.3079585%" y1="1.04083409e-14%" x2="50.6920415%" y2="100%" id="linearGradient-10">
            <stop stop-color="#7F78BB" offset="0%"></stop>
            <stop stop-color="#333098" offset="100%"></stop>
        </linearGradient>
        <linearGradient x1="-1.77635684e-13%" y1="44.4444444%" x2="100%" y2="55.5555556%" id="linearGradient-11">
            <stop stop-color="#98D78B" offset="0%"></stop>
            <stop stop-color="#5AC34E" offset="100%"></stop>
        </linearGradient>
        <linearGradient x1="-1.42941214e-13%" y1="1.04083409e-14%" x2="100%" y2="100%" id="linearGradient-12">
            <stop stop-color="#7F78BB" offset="0%"></stop>
            <stop stop-color="#333098" offset="100%"></stop>
        </linearGradient>
        <linearGradient x1="100%" y1="-2.28983499e-14%" x2="-2.88657986e-13%" y2="100%" id="linearGradient-13">
            <stop stop-color="#5AC34E" offset="0%"></stop>
            <stop stop-color="#D2EDCA" offset="100%"></stop>
        </linearGradient>
        <linearGradient x1="-1.77635684e-13%" y1="32%" x2="100%" y2="68%" id="linearGradient-14">
            <stop stop-color="#98D78B" offset="0%"></stop>
            <stop stop-color="#5AC34E" offset="100%"></stop>
        </linearGradient>
    </defs>
    <g id="icon-/-contact" stroke="none" stroke-width="1" fill="none" fill-rule="evenodd">
        <g id="Group-3" transform="translate(8.000000, 10.000000)">
            <g id="Group-2">
                <mask id="mask-3" fill="white">
                    <use xlink:href="#path-2"></use>
                </mask>
                <use id="Oval" fill="url(#linearGradient-1)" xlink:href="#path-2"></use>
                <g id="Group" mask="url(#mask-3)">
                    <g transform="translate(6.000000, 0.000000)">
                        <rect id="Rectangle" fill="url(#linearGradient-4)" x="2" y="0" width="34" height="51" rx="4"></rect>
                        <path d="M6,0 L8,0 L8,0 L8,51 L6,51 C3.790861,51 2,49.209139 2,47 L2,4 C2,1.790861 3.790861,4.05812251e-16 6,0 Z" id="Rectangle-Copy" fill="url(#linearGradient-5)"></path>
                        <rect id="Rectangle" fill="url(#linearGradient-6)" x="0" y="5" width="6" height="2" rx="1"></rect>
                        <rect id="Rectangle-Copy-2" fill="url(#linearGradient-6)" x="0" y="13" width="6" height="2" rx="1"></rect>
                        <rect id="Rectangle-Copy-3" fill="url(#linearGradient-6)" x="0" y="21" width="6" height="2" rx="1"></rect>
                        <rect id="Rectangle-Copy-4" fill="url(#linearGradient-6)" x="0" y="29" width="6" height="2" rx="1"></rect>
                        <rect id="Rectangle-Copy-5" fill="url(#linearGradient-6)" x="0" y="37" width="6" height="2" rx="1"></rect>
                        <rect id="Rectangle-Copy-6" fill="url(#linearGradient-6)" x="0" y="45" width="6" height="2" rx="1"></rect>
                    </g>
                </g>
            </g>
            <g id="Group-2">
                <mask id="mask-8" fill="white">
                    <use xlink:href="#path-7"></use>
                </mask>
                <g id="Oval"></g>
                <g id="Group" mask="url(#mask-8)">
                    <g transform="translate(6.000000, 0.000000)">
                        <rect id="Rectangle" fill="url(#linearGradient-9)" x="2" y="0" width="34" height="51" rx="4"></rect>
                        <path d="M6,0 L8,0 L8,0 L8,51 L6,51 C3.790861,51 2,49.209139 2,47 L2,4 C2,1.790861 3.790861,4.05812251e-16 6,0 Z" id="Rectangle-Copy" fill="url(#linearGradient-10)"></path>
                        <rect id="Rectangle" fill="url(#linearGradient-11)" x="0" y="5" width="6" height="2" rx="1"></rect>
                        <rect id="Rectangle-Copy-2" fill="url(#linearGradient-11)" x="0" y="13" width="6" height="2" rx="1"></rect>
                        <rect id="Rectangle-Copy-3" fill="url(#linearGradient-11)" x="0" y="21" width="6" height="2" rx="1"></rect>
                        <rect id="Rectangle-Copy-4" fill="url(#linearGradient-11)" x="0" y="29" width="6" height="2" rx="1"></rect>
                        <rect id="Rectangle-Copy-5" fill="url(#linearGradient-11)" x="0" y="37" width="6" height="2" rx="1"></rect>
                        <rect id="Rectangle-Copy-6" fill="url(#linearGradient-6)" x="0" y="45" width="6" height="2" rx="1"></rect>
                    </g>
                </g>
            </g>
            <circle id="Oval" fill="url(#linearGradient-12)" cx="26" cy="24" r="10"></circle>
            <circle id="Oval-Copy-7" fill="url(#linearGradient-13)" transform="translate(26.000000, 20.000000) scale(1, -1) translate(-26.000000, -20.000000) " cx="26" cy="20" r="3"></circle>
            <path d="M24,24 L28,24 C29.6568542,24 31,25.3431458 31,27 L31,29 C31,29.5522847 30.5522847,30 30,30 L22,30 C21.4477153,30 21,29.5522847 21,29 L21,27 C21,25.3431458 22.3431458,24 24,24 Z" id="Rectangle" fill="url(#linearGradient-14)"></path>
        </g>
    </g>
</svg>