<?xml version="1.0" encoding="UTF-8"?>
<svg width="64px" height="64px" viewBox="0 0 64 64" version="1.1" xmlns="http://www.w3.org/2000/svg" xmlns:xlink="http://www.w3.org/1999/xlink">
    <title>icon / home</title>
    <defs>
        <linearGradient x1="50%" y1="0%" x2="50%" y2="100%" id="linearGradient-1">
            <stop stop-color="#EDF8EA" offset="0%"></stop>
            <stop stop-color="#D2EDCA" offset="100%"></stop>
        </linearGradient>
        <circle id="path-2" cx="24" cy="24" r="24"></circle>
        <linearGradient x1="-1.42941214e-13%" y1="7.98611111%" x2="100%" y2="92.0138889%" id="linearGradient-4">
            <stop stop-color="#7F78BB" offset="0%"></stop>
            <stop stop-color="#333098" offset="100%"></stop>
        </linearGradient>
        <linearGradient x1="24.4140489%" y1="1.04083409e-14%" x2="75.5859511%" y2="100%" id="linearGradient-5">
            <stop stop-color="#7F78BB" offset="0%"></stop>
            <stop stop-color="#333098" offset="100%"></stop>
        </linearGradient>
        <linearGradient x1="41.7480469%" y1="1.04083409e-14%" x2="58.2519531%" y2="100%" id="linearGradient-6">
            <stop stop-color="#C7C1E0" offset="0%"></stop>
            <stop stop-color="#7F78BB" offset="100%"></stop>
        </linearGradient>
        <linearGradient x1="-1.42941214e-13%" y1="1.04083409e-14%" x2="100%" y2="100%" id="linearGradient-7">
            <stop stop-color="#7F78BB" offset="0%"></stop>
            <stop stop-color="#333098" offset="100%"></stop>
        </linearGradient>
        <linearGradient x1="23.1111111%" y1="1.04083409e-14%" x2="76.8888889%" y2="100%" id="linearGradient-8">
            <stop stop-color="#7F78BB" offset="0%"></stop>
            <stop stop-color="#333098" offset="100%"></stop>
        </linearGradient>
        <linearGradient x1="19.7530864%" y1="1.04083409e-14%" x2="80.2469136%" y2="100%" id="linearGradient-9">
            <stop stop-color="#7F78BB" offset="0%"></stop>
            <stop stop-color="#333098" offset="100%"></stop>
        </linearGradient>
        <linearGradient x1="-1.42941214e-13%" y1="45.5%" x2="100%" y2="54.5%" id="linearGradient-10">
            <stop stop-color="#C7C1E0" offset="0%"></stop>
            <stop stop-color="#7F78BB" offset="100%"></stop>
        </linearGradient>
        <linearGradient x1="-1.77635684e-13%" y1="35.5029586%" x2="100%" y2="64.4970414%" id="linearGradient-11">
            <stop stop-color="#98D78B" offset="0%"></stop>
            <stop stop-color="#5AC34E" offset="100%"></stop>
        </linearGradient>
        <linearGradient x1="100%" y1="60.6508876%" x2="7.07767178e-14%" y2="39.3491124%" id="linearGradient-12">
            <stop stop-color="#5AC34E" offset="0%"></stop>
            <stop stop-color="#D2EDCA" offset="100%"></stop>
        </linearGradient>
    </defs>
    <g id="icon-/-home" stroke="none" stroke-width="1" fill="none" fill-rule="evenodd">
        <g id="Group-2" transform="translate(6.000000, 6.000000)">
            <g id="Group-4" transform="translate(2.000000, 4.000000)">
                <mask id="mask-3" fill="white">
                    <use xlink:href="#path-2"></use>
                </mask>
                <use id="Oval" fill="url(#linearGradient-1)" xlink:href="#path-2"></use>
                <polygon id="Rectangle" fill="url(#linearGradient-4)" mask="url(#mask-3)" points="6 13.068262 24 -1.32534027 42 13.068262 42 31.6746597 6 31.6746597"></polygon>
                <polygon id="Rectangle-Copy-11" fill="url(#linearGradient-5)" mask="url(#mask-3)" points="6 20 24 5.67465973 42 20 42 56 6 56"></polygon>
                <rect id="Rectangle-Copy" fill="#C7C1E0" opacity="0.5" mask="url(#mask-3)" x="9" y="19" width="15" height="32" rx="2"></rect>
                <path d="M23,28 L23,51 C23,51.5522847 22.5522847,52 22,52 L11,52 C10.4477153,52 10,51.5522847 10,51 L10,28 L23,28 Z M10,21 C10,20.4477153 10.4477153,20 11,20 L22,20 C22.5522847,20 23,20.4477153 23,21 L23,27 L10,27 L10,21 Z" id="Combined-Shape" fill="url(#linearGradient-6)" mask="url(#mask-3)"></path>
                <rect id="Rectangle-Copy-9" fill="#C7C1E0" mask="url(#mask-3)" x="12" y="23" width="9" height="9" rx="4.5"></rect>
                <rect id="Rectangle-Copy-10" fill="url(#linearGradient-7)" mask="url(#mask-3)" x="13" y="24" width="7" height="7" rx="3.5"></rect>
                <rect id="Rectangle-Copy-2" fill="#C7C1E0" opacity="0.5" mask="url(#mask-3)" x="26" y="19" width="13" height="17" rx="2"></rect>
                <path d="M38,28 L38,34 C38,34.5522847 37.5522847,35 37,35 L33,35 L33,28 L38,28 Z M32,28 L32,35 L28,35 C27.4477153,35 27,34.5522847 27,34 L27,28 L32,28 Z M37,20 C37.5522847,20 38,20.4477153 38,21 L38,27 L33,27 L33,20 L37,20 Z M27,21 C27,20.4477153 27.4477153,20 28,20 L32,20 L32,27 L27,27 L27,21 Z" id="Combined-Shape" fill="url(#linearGradient-8)" mask="url(#mask-3)"></path>
            </g>
            <g id="Group">
                <rect id="Rectangle" fill="url(#linearGradient-9)" x="36" y="6" width="7" height="9"></rect>
                <rect id="Rectangle-Copy-4" fill="url(#linearGradient-10)" x="34.5" y="3" width="10" height="3" rx="1"></rect>
                <path d="M0.390289239,19.6997775 L25.3902892,0.469008278 C25.749741,0.19250693 26.250259,0.19250693 26.6097108,0.469008278 L51.6097108,19.6997775 C51.8557959,19.8890738 52,20.1819325 52,20.4924015 L52,25.969137 C52,26.5214217 51.5522847,26.969137 51,26.969137 C50.7794558,26.969137 50.5650978,26.8962291 50.3902892,26.761761 L26.6097108,8.46900828 C26.250259,8.19250693 25.749741,8.19250693 25.3902892,8.46900828 L1.60971076,26.761761 C1.17195662,27.0984949 0.544109966,27.0166019 0.207376011,26.5788477 C0.0729078546,26.4040391 2.70088717e-17,26.1896811 0,25.969137 L0,20.4924015 C-3.36147504e-15,20.1819325 0.144204053,19.8890738 0.390289239,19.6997775 Z" id="Rectangle" fill="url(#linearGradient-11)"></path>
                <polygon id="Rectangle-Copy-3" fill="url(#linearGradient-12)" opacity="0.5" points="3.68038933e-14 21 26 1 52 21 52 25 26 5 3.68038933e-14 25"></polygon>
            </g>
        </g>
    </g>
</svg>