<?xml version="1.0" encoding="UTF-8"?>
<svg width="64px" height="64px" viewBox="0 0 64 64" version="1.1" xmlns="http://www.w3.org/2000/svg" xmlns:xlink="http://www.w3.org/1999/xlink">
    <title>icon / partner</title>
    <defs>
        <linearGradient x1="50%" y1="0%" x2="50%" y2="100%" id="linearGradient-1">
            <stop stop-color="#EDF8EA" offset="0%"></stop>
            <stop stop-color="#D2EDCA" offset="100%"></stop>
        </linearGradient>
        <circle id="path-2" cx="24" cy="24" r="24"></circle>
        <linearGradient x1="50%" y1="41.80839%" x2="89.8318835%" y2="66.4921179%" id="linearGradient-4">
            <stop stop-color="#333098" offset="0%"></stop>
            <stop stop-color="#7F78BB" offset="100%"></stop>
        </linearGradient>
        <linearGradient x1="-1.77635684e-13%" y1="36.3109911%" x2="100%" y2="63.6890089%" id="linearGradient-5">
            <stop stop-color="#98D78B" offset="0%"></stop>
            <stop stop-color="#5AC34E" offset="100%"></stop>
        </linearGradient>
        <linearGradient x1="50%" y1="35.1239669%" x2="89.8318835%" y2="79.9498257%" id="linearGradient-6">
            <stop stop-color="#7F78BB" offset="0%"></stop>
            <stop stop-color="#333098" offset="100%"></stop>
        </linearGradient>
        <linearGradient x1="13.2653061%" y1="1.66533454e-13%" x2="86.7346939%" y2="100%" id="linearGradient-7">
            <stop stop-color="#98D78B" offset="0%"></stop>
            <stop stop-color="#5AC34E" offset="100%"></stop>
        </linearGradient>
        <linearGradient x1="100%" y1="27.7777778%" x2="-2.88657986e-13%" y2="72.2222222%" id="linearGradient-8">
            <stop stop-color="#5AC34E" offset="0%"></stop>
            <stop stop-color="#D2EDCA" offset="100%"></stop>
        </linearGradient>
        <linearGradient x1="-1.77635684e-13%" y1="46.875%" x2="100%" y2="53.125%" id="linearGradient-9">
            <stop stop-color="#212371" offset="0%"></stop>
            <stop stop-color="#333098" offset="100%"></stop>
        </linearGradient>
        <linearGradient x1="-1.77635684e-13%" y1="47.5308642%" x2="100%" y2="52.4691358%" id="linearGradient-10">
            <stop stop-color="#212371" offset="0%"></stop>
            <stop stop-color="#333098" offset="100%"></stop>
        </linearGradient>
    </defs>
    <g id="icon-/-partner" stroke="none" stroke-width="1" fill="none" fill-rule="evenodd">
        <g id="Group-4" transform="translate(8.000000, 10.000000)">
            <mask id="mask-3" fill="white">
                <use xlink:href="#path-2"></use>
            </mask>
            <use id="Oval" fill="url(#linearGradient-1)" xlink:href="#path-2"></use>
            <rect id="Rectangle" fill="url(#linearGradient-4)" mask="url(#mask-3)" x="3" y="23" width="42" height="17" rx="2"></rect>
        </g>
        <path d="M38,12 C40.209139,12 42,13.790861 42,16 L42,19 C42,20.4801068 41.1961002,21.7724528 40.0011092,22.4642293 L40,16 C40,14.8954305 39.1045695,14 38,14 L26,14 C24.8954305,14 24,14.8954305 24,16 L23.9998796,22.4648015 C22.8043432,21.7731656 22,20.480515 22,19 L22,16 C22,13.790861 23.790861,12 26,12 L38,12 Z" id="Combined-Shape" fill="url(#linearGradient-5)"></path>
        <path d="M12,19 L52,19 C53.1045695,19 54,19.8954305 54,21 L54,32.6572974 C54,33.4694119 53.5089158,34.2008981 52.7572657,34.5083913 L32.7572657,42.6902095 C32.2719421,42.8887509 31.7280579,42.8887509 31.2427343,42.6902095 L11.2427343,34.5083913 C10.4910842,34.2008981 10,33.4694119 10,32.6572974 L10,21 C10,19.8954305 10.8954305,19 12,19 Z" id="Rectangle-Copy" fill="url(#linearGradient-6)"></path>
        <rect id="Rectangle" fill="url(#linearGradient-7)" x="29" y="38" width="6" height="7" rx="3"></rect>
        <rect id="Rectangle-Copy-2" fill="url(#linearGradient-8)" x="29" y="38" width="6" height="4" rx="1"></rect>
        <rect id="Rectangle" fill="url(#linearGradient-9)" opacity="0.400000006" x="14" y="25" width="12" height="3" rx="1.5"></rect>
        <rect id="Rectangle-Copy-3" fill="url(#linearGradient-10)" opacity="0.400000006" x="14" y="29" width="9" height="2" rx="1"></rect>
    </g>
</svg>