<?xml version="1.0" encoding="UTF-8"?>
<svg width="64px" height="64px" viewBox="0 0 64 64" version="1.1" xmlns="http://www.w3.org/2000/svg" xmlns:xlink="http://www.w3.org/1999/xlink">
    <title>icon / program</title>
    <defs>
        <linearGradient x1="50%" y1="0%" x2="50%" y2="100%" id="linearGradient-1">
            <stop stop-color="#EDF8EA" offset="0%"></stop>
            <stop stop-color="#D2EDCA" offset="100%"></stop>
        </linearGradient>
        <circle id="path-2" cx="24" cy="24" r="24"></circle>
        <linearGradient x1="-1.77635684e-13%" y1="7.3964497%" x2="100%" y2="92.6035503%" id="linearGradient-4">
            <stop stop-color="#98D78B" offset="0%"></stop>
            <stop stop-color="#3E923A" offset="100%"></stop>
        </linearGradient>
        <linearGradient x1="-1.77635684e-13%" y1="7.68048998%" x2="100%" y2="92.31951%" id="linearGradient-5">
            <stop stop-color="#98D78B" offset="0%"></stop>
            <stop stop-color="#5AC34E" offset="100%"></stop>
        </linearGradient>
        <linearGradient x1="-1.77635684e-13%" y1="1.66533454e-13%" x2="100%" y2="100%" id="linearGradient-6">
            <stop stop-color="#3E923A" offset="0%"></stop>
            <stop stop-color="#5AC34E" offset="100%"></stop>
        </linearGradient>
        <linearGradient x1="50%" y1="9.65857901e-14%" x2="50%" y2="101.990829%" id="linearGradient-7">
            <stop stop-color="#7F78BB" offset="0%"></stop>
            <stop stop-color="#212371" offset="100%"></stop>
        </linearGradient>
        <linearGradient x1="-1.42941214e-13%" y1="7.21843606%" x2="100%" y2="92.7815639%" id="linearGradient-8">
            <stop stop-color="#7F78BB" offset="0%"></stop>
            <stop stop-color="#333098" offset="100%"></stop>
        </linearGradient>
        <linearGradient x1="-1.77635684e-13%" y1="0.956073262%" x2="100%" y2="99.0439267%" id="linearGradient-9">
            <stop stop-color="#212371" offset="0%"></stop>
            <stop stop-color="#333098" offset="100%"></stop>
        </linearGradient>
    </defs>
    <g id="icon-/-program" stroke="none" stroke-width="1" fill="none" fill-rule="evenodd">
        <g id="Group-2" transform="translate(8.000000, 5.999875)">
            <g id="Group-4" transform="translate(0.000000, 4.000125)">
                <mask id="mask-3" fill="white">
                    <use xlink:href="#path-2"></use>
                </mask>
                <use id="Oval" fill="url(#linearGradient-1)" xlink:href="#path-2"></use>
                <g id="Group" mask="url(#mask-3)">
                    <g transform="translate(8.000000, 37.000000) rotate(3.000000) translate(-8.000000, -37.000000) translate(-5.000000, 25.000000)">
                        <path d="M8.44467765,0.409635687 L11.4855651,3.71080334 C11.8893175,3.65411093 12.3019347,3.62478879 12.7214506,3.62478879 C13.3798994,3.62478879 14.0213535,3.69702297 14.6382107,3.83394443 L17.5868066,0.634768575 C17.5862503,0.637614644 17.8007264,0.426025119 18.2302348,0 C19.2873535,1.17412399 20.1138696,2.00013269 20.7097831,2.4780261 L19.373716,6.67022294 C20.0077109,7.40686642 20.5197233,8.25008518 20.8787045,9.16905615 L25.2541258,10.1275413 C25.3782149,10.8356075 25.4429013,11.5639174 25.4429013,12.3072259 C25.4429013,12.5311437 25.6286008,12.7690912 26,13.0210685 C25.5781701,13.4560034 25.3680075,13.6728852 25.3695122,13.6717139 L21.1608201,14.5943702 C20.8431409,15.7523144 20.290104,16.8139386 19.555883,17.7254629 L21.536785,21.329972 L20.9088573,21.973455 C20.0614789,22.681534 19.1196758,23.2818128 18.1048896,23.7530056 L15.226299,20.6283398 C14.4327648,20.8634088 13.5919597,20.9896629 12.7214506,20.9896629 C12.0831054,20.9896629 11.460733,20.9217723 10.8612603,20.7928675 L7.90579656,24 C6.92696355,23.6022926 6.00917475,23.0869767 5.17025853,22.471751 L6.47307678,18.3824207 C5.40154575,17.2964459 4.6149825,15.932299 4.23350423,14.4092243 L0.0554134296,13.4937988 C0.0187458982,13.1031665 0,12.7073694 0,12.3072259 C0,11.6271203 0.054153585,10.959571 0.158413614,10.3085958 L0.815305521,9.65677997 L4.49258684,9.35897073 C4.95379491,8.0905601 5.70411846,6.95936867 6.66458271,6.04379727 L5.37494207,1.99568044 C5.37494207,1.99568044 5.58997569,1.78089345 6.02004292,1.35131947 C7.03418011,0.936914729 7.84239169,0.623020134 8.44467765,0.409635687 Z M12.7214506,8.69819119 C10.6136917,8.69819119 8.90501544,10.4109037 8.90501544,12.5236416 C8.90501544,14.6363796 10.6136917,16.3490921 12.7214506,16.3490921 C14.8292096,16.3490921 16.5378858,14.6363796 16.5378858,12.5236416 C16.5378858,10.4109037 14.8292096,8.69819119 12.7214506,8.69819119 Z" id="Shape" fill="url(#linearGradient-4)"></path>
                        <path d="M9.29749317,6.41382729e-05 L12.2858323,3.21852537 C12.6824913,3.16327033 13.0878575,3.13469179 13.5,3.13469179 C14.1470311,3.13469179 14.7773611,3.20512793 15.3835186,3.33864065 L18.2800205,0.21923723 C19.3932166,0.673412902 20.4253295,1.28145188 21.3490267,2.01643053 L20.0360791,6.10346705 C20.6592558,6.82182703 21.1625148,7.64415763 21.5153231,8.54038276 L25.8146037,9.47523542 C25.936472,10.1654163 26,10.8753229 26,11.5998452 C26,12.0495256 25.975528,12.4935758 25.9278243,12.930774 L21.7926232,13.8291612 C21.4803615,14.9588591 20.9365433,15.9945402 20.2144981,16.8836731 L21.5447729,21.024262 C20.7122336,21.7145317 19.7869357,22.2997223 18.7899402,22.759088 L15.9600931,19.7130562 C15.1807106,19.9420253 14.3549345,20.0649986 13.5,20.0649986 C12.8727603,20.0649986 12.2612156,19.9988055 11.6721726,19.8731241 L8.768004,22.999931 C7.80592411,22.6120447 6.9038634,22.1094241 6.07935593,21.5093411 L7.35988852,17.5224943 C6.30725406,16.4637643 5.5345639,15.1339215 5.15979256,13.6491753 L1.05440666,12.7562776 C1.01840521,12.3755658 1,11.9898227 1,11.5998452 C1,10.9371543 1.05314758,10.286691 1.15547316,9.65236534 L5.41410363,8.72613027 C5.86719253,7.48933819 6.60441191,6.38633073 7.54814867,5.49355961 L6.28104319,1.54658589 C7.20210879,0.903673412 8.21538221,0.380492639 9.29749317,6.41382729e-05 Z M13.5,8.08112897 C11.4289322,8.08112897 9.75,9.75097972 9.75,11.810845 C9.75,13.8707103 11.4289322,15.5405611 13.5,15.5405611 C15.5710678,15.5405611 17.25,13.8707103 17.25,11.810845 C17.25,9.75097972 15.5710678,8.08112897 13.5,8.08112897 Z" id="Combined-Shape-Copy-2" fill="url(#linearGradient-5)"></path>
                        <path d="M13.5,4 C17.6421356,4 21,7.35786438 21,11.5 C21,15.6421356 17.6421356,19 13.5,19 C9.35786438,19 6,15.6421356 6,11.5 C6,7.35786438 9.35786438,4 13.5,4 Z M13.5,6.71214735 C10.7651049,6.71214735 8.54803439,8.9507236 8.54803439,11.7121474 C8.54803439,14.4735711 10.7651049,16.7121474 13.5,16.7121474 C16.2348951,16.7121474 18.4519656,14.4735711 18.4519656,11.7121474 C18.4519656,8.9507236 16.2348951,6.71214735 13.5,6.71214735 Z" id="Combined-Shape" fill="url(#linearGradient-6)" opacity="0.400000006"></path>
                    </g>
                </g>
            </g>
            <g id="Group" transform="translate(9.000000, 0.000000)">
                <path d="M13.276281,1 L18.0570054,6.17769245 C18.6917638,6.08877365 19.340459,6.04278356 20,6.04278356 C21.0351788,6.04278356 22.0436394,6.15607874 23.0134301,6.3708322 L27.6490585,1.35310804 C27.6481839,1.35757194 27.9853719,1.02570589 28.6606226,0.357509878 C30.3225695,2.19905614 31.6219749,3.49460349 32.5588389,4.24415193 L30.4583441,10.8193727 C31.4550777,11.9747558 32.2600368,13.2972961 32.8244083,14.7386495 L39.703217,16.2419786 C39.8983035,17.3525399 40,18.4948523 40,19.660689 C40,20.0118913 40.2919472,20.3850983 40.8758415,20.7803103 C40.2126627,21.4624808 39.882256,21.8026475 39.8846215,21.8008103 L33.2679357,23.2479439 C32.768497,25.0641131 31.8990413,26.7292099 30.7447375,28.1588836 L33.859008,33.8123497 L32.871813,34.821616 C31.5396089,35.9321974 30.0589553,36.8737002 28.4635614,37.6127391 L23.9379917,32.7118797 C22.6904387,33.0805721 21.3685689,33.2785944 20,33.2785944 C18.996427,33.2785944 18.0179656,33.1721118 17.0755059,32.9699321 L12.4290803,38.0001358 C10.8902102,37.3763545 9.44731056,36.5681109 8.12841032,35.6031647 L10.1766331,29.1892843 C8.492028,27.485995 7.25543436,25.3464087 6.65569415,22.9575532 L0.0871180987,21.5217607 C0.0294713217,20.9090763 0,20.2882913 0,19.660689 C0,18.5939823 0.0851374368,17.5469695 0.249049608,16.5259522 L1.28178074,15.5036164 L7.06301029,15.0365196 C7.78809752,13.0470902 8.96771701,11.2728812 10.4777087,9.83685987 L8.45020309,3.48762039 C8.45020309,3.48762039 8.7882677,3.15073929 9.46439693,2.4769771 C11.0587704,1.82700699 12.3293985,1.33468129 13.276281,1 Z M20,14.0001247 C16.6862915,14.0001247 14,16.6864162 14,20.0001247 C14,23.3138332 16.6862915,26.0001247 20,26.0001247 C23.3137085,26.0001247 26,23.3138332 26,20.0001247 C26,16.6864162 23.3137085,14.0001247 20,14.0001247 Z" id="Shape" fill="url(#linearGradient-7)"></path>
                <path d="M14.276281,3.57072099e-15 L19.0570054,5.17769245 C19.6917638,5.08877365 20.340459,5.04278356 21,5.04278356 C22.0351788,5.04278356 23.0436394,5.15607874 24.0134301,5.3708322 L28.6490585,0.353108044 C30.4299397,1.08376121 32.0811061,2.06187542 33.5588389,3.24415193 L31.4583441,9.81937265 C32.4550777,10.9747558 33.2600368,12.2972961 33.8244083,13.7386495 L40.703217,15.2419786 C40.8983035,16.3525399 41,17.4948523 41,18.660689 C41,19.3837662 40.9608799,20.0977942 40.8846215,20.8008103 L34.2679357,22.2479439 C33.768497,24.0641131 32.8990413,25.7292099 31.7447375,27.1588836 L33.871813,33.821616 C32.5396089,34.9321974 31.0589553,35.8737002 29.4635614,36.6127391 L24.9379917,31.7118797 C23.6904387,32.0805721 22.3685689,32.2785944 21,32.2785944 C19.996427,32.2785944 19.0179656,32.1721118 18.0755059,31.9699321 L13.4290803,37.0001358 C11.8902102,36.3763545 10.4473106,35.5681109 9.12841032,34.6031647 L11.1766331,28.1892843 C9.492028,26.485995 8.25543436,24.3464087 7.65569415,21.9575532 L1.0871181,20.5217607 C1.02947132,19.9090763 1,19.2882913 1,18.660689 C1,17.5939823 1.08513744,16.5469695 1.24904961,15.5259522 L8.06301029,14.0365196 C8.78809752,12.0470902 9.96771701,10.2728812 11.4777087,8.83685987 L9.45020309,2.48762039 C10.9238485,1.4534794 12.5450029,0.611930587 14.276281,3.57072099e-15 Z M21,13.0001247 C17.6862915,13.0001247 15,15.6864162 15,19.0001247 C15,22.3138332 17.6862915,25.0001247 21,25.0001247 C24.3137085,25.0001247 27,22.3138332 27,19.0001247 C27,15.6864162 24.3137085,13.0001247 21,13.0001247 Z" id="Combined-Shape-Copy-2" fill="url(#linearGradient-8)"></path>
                <path d="M21,6.66068898 C27.6917034,6.66068898 33.1164008,12.033272 33.1164008,18.660689 C33.1164008,25.288106 27.6917034,30.660689 21,30.660689 C14.3082966,30.660689 8.88359921,25.288106 8.88359921,18.660689 C8.88359921,12.033272 14.3082966,6.66068898 21,6.66068898 Z M21,11.0001247 C16.581722,11.0001247 13,14.5818467 13,19.0001247 C13,23.4184027 16.581722,27.0001247 21,27.0001247 C25.418278,27.0001247 29,23.4184027 29,19.0001247 C29,14.5818467 25.418278,11.0001247 21,11.0001247 Z" id="Combined-Shape" fill="url(#linearGradient-9)" opacity="0.400000006"></path>
            </g>
        </g>
    </g>
</svg>