<?xml version="1.0" encoding="UTF-8"?>
<svg width="64px" height="64px" viewBox="0 0 64 64" version="1.1" xmlns="http://www.w3.org/2000/svg" xmlns:xlink="http://www.w3.org/1999/xlink">
    <title>icon / user</title>
    <defs>
        <linearGradient x1="50%" y1="0%" x2="50%" y2="100%" id="linearGradient-1">
            <stop stop-color="#EDF8EA" offset="0%"></stop>
            <stop stop-color="#D2EDCA" offset="100%"></stop>
        </linearGradient>
        <circle id="path-2" cx="24" cy="24" r="24"></circle>
        <linearGradient x1="23.553719%" y1="1.66533454e-13%" x2="76.446281%" y2="100%" id="linearGradient-4">
            <stop stop-color="#98D78B" offset="0%"></stop>
            <stop stop-color="#3E923A" offset="100%"></stop>
        </linearGradient>
        <linearGradient x1="-1.42941214e-13%" y1="6.8877551%" x2="100%" y2="93.1122449%" id="linearGradient-5">
            <stop stop-color="#7F78BB" offset="0%"></stop>
            <stop stop-color="#333098" offset="100%"></stop>
        </linearGradient>
        <linearGradient x1="31.0650888%" y1="1.04083409e-14%" x2="68.9349112%" y2="100%" id="linearGradient-6">
            <stop stop-color="#7F78BB" offset="0%"></stop>
            <stop stop-color="#333098" offset="100%"></stop>
        </linearGradient>
        <linearGradient x1="5.0939645%" y1="1.04083409e-14%" x2="94.9060355%" y2="100%" id="linearGradient-7">
            <stop stop-color="#7F78BB" offset="0%"></stop>
            <stop stop-color="#333098" offset="100%"></stop>
        </linearGradient>
        <linearGradient x1="82.6183432%" y1="-2.28983499e-14%" x2="17.3816568%" y2="100%" id="linearGradient-8">
            <stop stop-color="#5AC34E" offset="0%"></stop>
            <stop stop-color="#D2EDCA" offset="100%"></stop>
        </linearGradient>
        <linearGradient x1="79.3458886%" y1="-2.28983499e-14%" x2="20.6541114%" y2="100%" id="linearGradient-9">
            <stop stop-color="#D2EDCA" offset="0%"></stop>
            <stop stop-color="#5AC34E" offset="100%"></stop>
        </linearGradient>
        <linearGradient x1="-1.42941214e-13%" y1="25.9032853%" x2="100%" y2="74.0967147%" id="linearGradient-10">
            <stop stop-color="#7F78BB" offset="0%"></stop>
            <stop stop-color="#333098" offset="100%"></stop>
        </linearGradient>
        <linearGradient x1="100%" y1="39.0080719%" x2="-2.88657986e-13%" y2="60.9919281%" id="linearGradient-11">
            <stop stop-color="#3E923A" offset="0%"></stop>
            <stop stop-color="#5AC34E" offset="100%"></stop>
        </linearGradient>
        <linearGradient x1="-1.42941214e-13%" y1="1.04083409e-14%" x2="100%" y2="100%" id="linearGradient-12">
            <stop stop-color="#C7C1E0" offset="0%"></stop>
            <stop stop-color="#7F78BB" offset="100%"></stop>
        </linearGradient>
        <linearGradient x1="100%" y1="-2.28983499e-14%" x2="-2.88657986e-13%" y2="100%" id="linearGradient-13">
            <stop stop-color="#5AC34E" offset="0%"></stop>
            <stop stop-color="#D2EDCA" offset="100%"></stop>
        </linearGradient>
    </defs>
    <g id="icon-/-user" stroke="none" stroke-width="1" fill="none" fill-rule="evenodd">
        <g id="Group-5" transform="translate(8.000000, 6.000000)">
            <g id="Group-4" transform="translate(0.000000, 4.000000)">
                <mask id="mask-3" fill="white">
                    <use xlink:href="#path-2"></use>
                </mask>
                <use id="Oval" fill="url(#linearGradient-1)" xlink:href="#path-2"></use>
                <g id="Group-2" mask="url(#mask-3)">
                    <g transform="translate(10.000000, 18.000000)">
                        <rect id="Rectangle" fill="#C7C1E0" x="8" y="2" width="12" height="3" rx="1"></rect>
                        <rect id="Rectangle" fill="url(#linearGradient-4)" x="10" y="0" width="8" height="11"></rect>
                        <path d="M6,4 L22,4 C25.3137085,4 28,6.6862915 28,10 L28,24 C28,27.3137085 25.3137085,30 22,30 L6,30 C2.6862915,30 4.05812251e-16,27.3137085 0,24 L0,10 C-4.05812251e-16,6.6862915 2.6862915,4 6,4 Z M10,4 L18,4 L18,4.93782316 L14,9 L10,4.93782316 L10,4 Z" id="Combined-Shape" fill="url(#linearGradient-5)"></path>
                        <path d="M6,4 L8.93933983,4 L8.93933983,4 L14,8.81481481 L16,10.7407407 L16,28 C16,29.1045695 15.1045695,30 14,30 L6,30 C2.6862915,30 4.05812251e-16,27.3137085 0,24 L0,10 C-4.05812251e-16,6.6862915 2.6862915,4 6,4 Z" id="Combined-Shape-Copy" fill="url(#linearGradient-6)"></path>
                        <circle id="Oval" fill="#C7C1E0" cx="14" cy="12" r="1"></circle>
                        <circle id="Oval-Copy" fill="#C7C1E0" cx="14" cy="18" r="1"></circle>
                        <circle id="Oval-Copy-2" fill="#C7C1E0" cx="14" cy="24" r="1"></circle>
                        <path d="M6.93933983,2.64644661 L10.7675699,2.64644661 C11.0437123,2.64644661 11.2675699,2.87030423 11.2675699,3.14644661 C11.2675699,3.19505027 11.2604832,3.24339424 11.2465333,3.28995298 L9.7455265,8.29967691 C9.69912368,8.45454984 9.58069912,8.57742749 9.42764373,8.62951295 L7.10042044,9.42147781 C6.83900065,9.51044018 6.55495979,9.37063581 6.46599742,9.10921602 C6.44834574,9.05734578 6.43933983,9.00292687 6.43933983,8.9481354 L6.43933983,3.14644661 C6.43933983,2.87030423 6.66319745,2.64644661 6.93933983,2.64644661 Z" id="Rectangle-Copy-4" fill="#C7C1E0" transform="translate(8.939340, 6.146447) rotate(-225.000000) translate(-8.939340, -6.146447) "></path>
                        <path d="M17.2217408,2.87141541 L19.5489641,3.66338027 C19.7020195,3.71546573 19.820444,3.83834338 19.8668468,3.99321631 L21.3678537,9.00294024 C21.44711,9.26746441 21.2969208,9.54615361 21.0323966,9.62540999 C20.9858379,9.63935986 20.9374939,9.64644661 20.8888903,9.64644661 L17.0606602,9.64644661 C16.7845178,9.64644661 16.5606602,9.42258898 16.5606602,9.14644661 L16.5606602,3.34475781 C16.5606602,3.06861544 16.7845178,2.84475781 17.0606602,2.84475781 C17.1154516,2.84475781 17.1698705,2.85376372 17.2217408,2.87141541 Z" id="Rectangle-Copy-5" fill="#C7C1E0" transform="translate(19.060660, 6.146447) rotate(-315.000000) translate(-19.060660, -6.146447) "></path>
                    </g>
                </g>
            </g>
            <g id="Group-3" transform="translate(13.000000, 0.000000)">
                <path d="M11,0 C17.0751322,-1.11598369e-15 22,4.92486775 22,11 L22,23.2142857 L22,23.2142857 C14.6890462,18.9953239 7.35385204,19.346127 0,23.2142857 L0,11 C-7.43989126e-16,4.92486775 4.92486775,1.11598369e-15 11,0 Z" id="Rectangle-Copy-2" fill="url(#linearGradient-7)"></path>
                <path d="M10.5859995,3.71428571 L11.4140005,3.71428571 C15.8873663,3.71428571 19.5137457,7.34066519 19.5137457,11.814031 C19.5137457,11.9713589 19.5091619,12.1286534 19.5,12.2857143 L19.2769179,16.1099793 C19.1029165,19.0928607 17.513401,21.8128137 15,23.4285714 C12.5633621,24.9949815 9.43663787,24.9949815 7,23.4285714 C4.48659904,21.8128137 2.89708354,19.0928607 2.72308213,16.1099793 L2.5,12.2857143 C2.2394965,7.81994006 5.64854199,3.98853496 10.1143162,3.72803146 C10.2713771,3.71886957 10.4286716,3.71428571 10.5859995,3.71428571 Z" id="Rectangle" fill="url(#linearGradient-8)"></path>
                <path d="M19.5137457,11.814031 C19.5137457,11.9713589 19.5091619,12.1286534 19.5,12.2857143 L19.2769179,16.1099793 C19.1029165,19.0928607 17.513401,21.8128137 15,23.4285714 C12.5633621,24.9949815 9.43663787,24.9949815 7,23.4285714 C6.23105126,22.9342472 5.54857728,22.3365715 4.96665616,21.6596344 C5.29107103,21.9371835 5.63583815,22.1944674 6,22.4285714 C8.43663787,23.9949815 11.5633621,23.9949815 14,22.4285714 C16.513401,20.8128137 18.1029165,18.0928607 18.2769179,15.1099793 L18.5,11.2857143 C18.5091619,11.1286534 18.5137457,10.9713589 18.5137457,10.814031 C18.5137457,8.82961259 17.8001193,7.01187058 16.6154976,5.60343606 C18.3869769,7.09013494 19.5137457,9.32049747 19.5137457,11.814031 Z" id="Combined-Shape" fill="url(#linearGradient-9)" opacity="0.400000006"></path>
                <path d="M11,0.928571429 C16.5688712,0.928571429 21.0833333,5.44303353 21.0833333,11.0119048 L21.0833333,14.9285714 L21.0833333,14.9285714 C15.4072571,14.8820419 10.5537152,13.1148856 7.63888889,7.29220779 C6.6819505,11.3187585 4.44008952,13.8629206 0.916666667,14.9285714 L0.916666667,11.0119048 C0.916666667,5.44303353 5.43112877,0.928571429 11,0.928571429 Z" id="Rectangle-Copy-2" fill="url(#linearGradient-10)"></path>
                <path d="M7.63888889,7.29220779 C10.2598277,12.5278139 14.4482483,14.4844675 19.3926904,14.8596302 L19.2784516,15.7360846 C13.6023753,15.6895551 10.5537152,14.1148856 7.63888889,8.29220779 C6.6819505,12.3187585 6.1088824,14.0402125 2.58545955,15.1058633 L2.48559648,14.3152538 C5.11418277,13.0250351 6.83261696,10.6847928 7.63888889,7.29220779 Z" id="Combined-Shape" fill="url(#linearGradient-11)" opacity="0.400000006"></path>
                <g id="Group" transform="translate(14.000000, 1.000000)">
                    <circle id="Oval-Copy-4" fill="url(#linearGradient-12)" cx="6" cy="4" r="2"></circle>
                    <circle id="Oval-Copy-5" fill="url(#linearGradient-12)" cx="4" cy="2" r="2"></circle>
                    <circle id="Oval-Copy-3" fill="url(#linearGradient-12)" cx="2" cy="4" r="2"></circle>
                    <circle id="Oval-Copy-6" fill="url(#linearGradient-12)" cx="4" cy="6" r="2"></circle>
                    <circle id="Oval-Copy-7" fill="url(#linearGradient-13)" transform="translate(4.000000, 4.000000) scale(1, -1) translate(-4.000000, -4.000000) " cx="4" cy="4" r="1"></circle>
                </g>
            </g>
        </g>
    </g>
</svg>